<?xml version="1.0" encoding="utf-8"?>
<!-- Generator: Adobe Illustrator 21.0.0, SVG Export Plug-In . SVG Version: 6.00 Build 0)  -->
<svg version="1.0" id="Слой_1" xmlns="http://www.w3.org/2000/svg" xmlns:xlink="http://www.w3.org/1999/xlink" x="0px" y="0px"
	 viewBox="0 0 256 256" style="enable-background:new 0 0 256 256;" xml:space="preserve">
<g id="Стилеобразующие-элементы-услуг">
	<g id="_x39_" transform="translate(-399.000000, -374.000000)">
		<g id="Icon_mobile_small" transform="translate(399.000000, 374.000000)">
			<g id="Group" transform="translate(31.500000, 22.000000)">
				<path id="Fill-2" class="st0" fill="#EF3E58" d="M79.4,107.7H59.8c-0.2,0-0.3,0.2-0.4,0.3c-0.5,8.9-2.2,18.4-4.6,26.2c0,0.1,0,0.2,0.1,0.3
					s0.2,0.1,0.3,0.1H62c0.2,0,0.3-0.1,0.3-0.2c1.9-6,3.4-13.8,4-20.4h6.4v20.3c0,0.2,0.2,0.4,0.4,0.4h6.4c0.2,0,0.4-0.2,0.4-0.4
					V108C79.8,107.9,79.6,107.7,79.4,107.7"/>
				<path id="Fill-3" class="st0" fill="#EF3E58" d="M162.3,107.7h-6.4c-0.2,0-0.4,0.2-0.4,0.4v20.3c-1.4,0.4-2.8,0.6-4.4,0.6
					c-4.2,0-5.2-1.3-5.2-6.9v-14c0-0.2-0.2-0.4-0.4-0.4h-6.4c-0.2,0-0.4,0.2-0.4,0.4v14.7c0,9.2,3.1,12.7,11,12.7
					c4.5,0,9.6-1.2,12.6-2.3c0.1-0.1,0.2-0.2,0.2-0.3v-24.8C162.7,107.9,162.5,107.7,162.3,107.7"/>
				<path id="Fill-4" class="st0" fill="#EF3E58" d="M26.7,107.8h-6.5c-0.2,0-0.3,0.1-0.3,0.3c-1,4-3.1,10.8-5.9,17.9l-6.5-18
					c-0.1-0.1-0.2-0.2-0.3-0.2H0.6c-0.1,0-0.2,0.1-0.3,0.2s-0.1,0.2,0,0.3l9.8,26.8c-1,2.1-1.9,3.8-2.8,5.4
					c-0.7,1.2-1.3,2.4-1.9,3.7c-0.1,0.1-0.1,0.2,0,0.3s0.2,0.2,0.3,0.2h7.1c0.1,0,0.3-0.1,0.3-0.2c1.2-2.3,2.7-5.5,4.1-8.8
					c4.2-9.8,7.5-19,10-27.4c0-0.1,0-0.2-0.1-0.3C26.9,107.8,26.8,107.8,26.7,107.8"/>
				<path id="Fill-5" class="st0" fill="#EF3E58" d="M50,128.4c0-0.1-0.1-0.2-0.2-0.2c-0.1,0-0.2,0-0.3,0c-1.6,0.6-4.5,1-6.5,1
					c-4.5,0-6.6-1.2-6.6-8c0-5.5,0.7-8,6.6-8c1.7,0,3.2,0.2,5.2,0.8c0.2,0,0.3,0,0.4-0.2c0.7-1.4,1.6-3.1,2.6-5.2c0-0.1,0-0.2,0-0.3
					c0-0.1-0.1-0.2-0.2-0.2c-2.6-0.8-5.7-1.3-8.5-1.3c-9.3,0-13.5,4.4-13.5,14.3c0,10,4.2,14.5,13.5,14.5c2.3,0,7-0.5,9.2-1.4
					c0.2-0.1,0.3-0.3,0.2-0.5L50,128.4"/>
				<path id="Fill-6" class="st0" fill="#EF3E58" d="M110.9,107.8h-6.5c-0.2,0-0.3,0.1-0.3,0.3c-1,4.1-3.1,10.8-5.9,17.9l-6.5-18
					c-0.1-0.1-0.2-0.2-0.3-0.2h-6.6c-0.1,0-0.2,0.1-0.3,0.2c-0.1,0.1-0.1,0.2,0,0.3l9.8,26.8c-1,2.1-1.9,3.8-2.8,5.4
					c-0.7,1.2-1.3,2.4-1.9,3.7c-0.1,0.1-0.1,0.2,0,0.3s0.2,0.2,0.3,0.2H97c0.1,0,0.3-0.1,0.3-0.2c1.2-2.3,2.7-5.5,4.1-8.8
					c4.1-9.8,7.5-19,10-27.4c0-0.1,0-0.2-0.1-0.3C111.1,107.8,111,107.8,110.9,107.8"/>
				<path id="Fill-7" class="st0" fill="#EF3E58" d="M134.9,107.7H116c-0.2,0-0.4,0.2-0.4,0.4v26.3c0,0.2,0.2,0.4,0.4,0.4h6.4
					c0.2,0,0.4-0.2,0.4-0.4V114h9.9c0.1,0,0.3-0.1,0.3-0.2c0.8-1.8,1.5-3.7,2.3-5.6c0-0.1,0-0.2,0-0.3
					C135.1,107.8,135,107.7,134.9,107.7"/>
				<path id="Fill-8" class="st1" fill="#0F67B1" d="M34.3,89.9c-4.2,0-5.5-1.1-5.5-8.3c0-7.6,1.4-8.3,5.5-8.3c4.2,0,5.6,0.7,5.6,8.3
					C39.9,88.7,38.6,89.9,34.3,89.9 M34.3,67.3c-9.2,0-12.8,4-12.8,14.1c0,10.3,3.6,14.3,12.8,14.3c9.3,0,12.9-4,12.9-14.3
					C47.2,71.3,43.6,67.3,34.3,67.3"/>
				<path id="Fill-9" class="st1" fill="#0F67B1" d="M72.8,88.8c0-0.1-0.1-0.2-0.2-0.2s-0.2,0-0.3,0c-1.6,0.6-4.5,1-6.5,1c-4.5,0-6.6-1.2-6.6-8
					c0-5.5,0.7-8,6.6-8c1.7,0,3.2,0.2,5.2,0.8c0.2,0,0.3,0,0.4-0.2c0.7-1.4,1.6-3.1,2.6-5.2c0-0.1,0-0.2,0-0.3
					c0-0.1-0.1-0.2-0.2-0.2c-2.6-0.8-5.7-1.3-8.5-1.3c-9.3,0-13.5,4.4-13.5,14.3c0,10,4.2,14.5,13.5,14.5c2.3,0,7-0.5,9.2-1.4
					c0.2-0.1,0.3-0.3,0.2-0.5L72.8,88.8"/>
				<path id="Fill-10" class="st1" fill="#0F67B1" d="M19.5,68.1H0.6c-0.2,0-0.4,0.2-0.4,0.4v26.3c0,0.2,0.2,0.4,0.4,0.4H7c0.2,0,0.4-0.2,0.4-0.4
					V74.4h9.9c0.1,0,0.3-0.1,0.3-0.2c0.8-1.8,1.5-3.7,2.3-5.6c0-0.1,0-0.2,0-0.3C19.7,68.2,19.6,68.1,19.5,68.1"/>
				
					<linearGradient id="Fill-11_1_" gradientUnits="userSpaceOnUse" x1="-414.6008" y1="2.8384" x2="-414.6008" y2="3.203" gradientTransform="matrix(186.3647 0 0 212.0835 77366.9063 -534.1235)">
					<stop  offset="0" style="stop-color:#0D67AF"/>
					<stop  offset="1" style="stop-color:#EF4158"/>
				</linearGradient>
				<path id="Fill-11" class="st2" fill="url(#Fill-11_1_)" d="M192.2,132c0-0.1,0-0.3,0-0.4c0-0.2,0-0.5,0-0.7c0.3-3.7,0.5-8.2,0.7-13.4c0-0.1,0-0.3,0-0.4
					c0.1-3.5,0.2-7.3,0.2-11.2c0-3.9-0.1-7.7-0.2-11.2c0-0.1,0-0.3,0-0.4c-0.2-5.1-0.4-9.7-0.7-13.4c0-0.2,0-0.5,0-0.7
					c0-0.1,0-0.3,0-0.4c0-0.4-0.1-0.7-0.1-1.1c0-0.2,0-0.3,0-0.4c-0.3-3.9-0.5-6.3-0.6-6.5c0-0.4-0.1-0.8-0.1-1.1c0-0.1,0-0.2,0-0.3
					c-0.1-0.7-0.2-1.3-0.4-2c0-0.1,0-0.2-0.1-0.3c-1.7-8.1-6.2-17-11.8-23.7c-2.2-2.6-4.5-4.9-6.9-6.7c-0.2-0.2-3-2.2-7.4-5.3
					c-5.1-3.5-12.4-8.4-20.7-13.2c-14.7-8.7-27.9-14.7-29.6-15.5l0,0l0,0c-0.1,0-0.1-0.1-0.1-0.1l0,0l0,0c-3.9-1.7-8.6-2.9-13.7-3.4
					c-1-0.1-2-0.2-3-0.2c-0.9,0-1.8-0.1-2.7-0.1c-0.5,0-0.9,0-1.4,0C86.7,0,80.4,1.3,75.4,3.6l0,0C74.6,3.9,61.3,10,46.2,18.8l0,0
					c-0.2,0.1-0.4,0.2-0.6,0.3C30.2,28.3,18,37.3,17.5,37.7c-3.8,2.8-7.2,6.4-10.3,11c-0.7,1-0.7,3.6,2.3,3.6h7.7
					c3.3,0,4.1-2,7.8-4.7c4.1-3,12.2-9,27-17.8c10.7-6.3,20.7-11.3,25.6-13.6l0,0c0.1,0,0.2-0.1,0.3-0.1c0,0,0.1,0,0.1-0.1
					c0,0,0.1,0,0.1-0.1c0.1,0,0.2-0.1,0.2-0.1l0,0c0.1,0,0.2-0.1,0.3-0.1l0,0c1.2-0.6,2-0.9,2-0.9c3.4-1.5,8.2-2.5,13.3-2.6
					c0.3,0,0.7,0,1,0s0.7,0,1,0c1.5,0,3,0.1,4.4,0.3c3.1,0.4,5.9,1,8.2,2c0.2,0.1,0.5,0.2,0.7,0.3c0,0,0.1,0.1,0.4,0.2
					c2.3,1,14.7,6.9,28.2,14.8c8,4.7,15.1,9.4,20,12.8c4.3,3,6.9,4.9,7,5c1.9,1.4,3.8,3.4,5.6,5.6c4.5,5.8,8.2,13.7,8.8,19.8
					c0,0.1,0.3,2.5,0.6,6.6c0,0.3,0,0.5,0.1,0.8c0,0.2,0,0.4,0,0.6c0,0.4,0.1,0.7,0.1,1.1c0,0.1,0,0.3,0,0.4c0,0.2,0,0.5,0,0.7
					c0,0.5,0.1,1,0.1,1.5c0,0.3,0,0.6,0.1,0.9c0,0.1,0,0.2,0,0.2c0,0.4,0,0.7,0.1,1.1c0,0.3,0,0.5,0,0.8c0.3,5.2,0.5,11.4,0.5,17.9
					s-0.2,12.7-0.5,17.9c0,0.3,0,0.5,0,0.8c0,0.4,0,0.7-0.1,1.1c0,0.1,0,0.2,0,0.2c0,0.3,0,0.6-0.1,0.9c0,0.5-0.1,1-0.1,1.5
					c0,0.3,0,0.5,0,0.7c0,0.1,0,0.3,0,0.4c0,0.4-0.1,0.7-0.1,1.1c0,0.2,0,0.4,0,0.6c0,0.3,0,0.6-0.1,0.8c-0.3,4.1-0.6,6.6-0.6,6.6
					c-0.6,6.1-4.3,14-8.8,19.8c-1.8,2.3-3.7,4.2-5.6,5.6c-0.1,0-2.7,2-7,5c-4.9,3.4-12.1,8.1-20,12.8c-13.5,8-26,13.8-28.2,14.8
					c-0.2,0.1-0.4,0.2-0.4,0.2c-0.2,0.1-0.5,0.2-0.7,0.3c-2.3,0.9-5.1,1.6-8.2,2c-1.4,0.2-2.9,0.3-4.4,0.3c-0.3,0-0.7,0-1,0
					s-0.7,0-1,0c-5.1-0.1-9.9-1-13.3-2.6c0,0-0.7-0.3-2-0.9l0,0c-0.1-0.1-0.3-0.1-0.4-0.2l0,0c-0.1-0.1-0.2-0.1-0.3-0.2
					c-0.1,0-0.1-0.1-0.2-0.1s-0.2-0.1-0.3-0.1c-0.1-0.1-0.2-0.1-0.4-0.2h-0.1c-5.1-2.4-14.7-7.2-24.9-13.2
					c-14.9-8.7-22.9-14.8-27-17.8c-3.7-2.7-4.5-4.7-7.8-4.7H9.5c-3,0-3,2.6-2.3,3.6c3.1,4.6,6.5,8.2,10.3,11
					c0.5,0.4,12.7,9.4,28.1,18.5c0.8,0.5,1.6,1,2.5,1.4l0,0c14.3,8.2,26.6,13.8,27.3,14.2l0,0c4.9,2.2,11.3,3.5,18.1,3.7
					c0.5,0,0.9,0,1.4,0c0.9,0,1.8,0,2.7-0.1c1,0,2-0.1,3-0.2c5.1-0.5,9.9-1.7,13.7-3.4l0,0l0,0c0,0,0.1,0,0.1-0.1l0,0l0,0
					c1.7-0.8,14.9-6.9,29.6-15.5c8.3-4.9,15.6-9.7,20.7-13.2c4.4-3.1,7.2-5.1,7.4-5.3c2.4-1.8,4.7-4.1,6.9-6.7
					c5.6-6.7,10.1-15.6,11.8-23.7c0-0.1,0-0.2,0.1-0.3c0.1-0.7,0.3-1.4,0.4-2c0-0.1,0-0.2,0-0.3c0.1-0.4,0.1-0.8,0.1-1.1
					c0-0.2,0.3-2.6,0.6-6.5c0-0.1,0-0.3,0-0.4C192.2,132.7,192.2,132.3,192.2,132"/>
			</g>
		</g>
	</g>
</g>
</svg>
